<svg xmlns="http://www.w3.org/2000/svg" width="124" height="124" viewBox="0 0 124 124">
  <g fill="none">
    <g fill="#E01E5A" transform="translate(0 65)">
      <path d="M26.4 13.2C26.4 20.3 20.6 26.1 13.5 26.1 6.4 26.1.6 20.3.6 13.2.6 6.1 6.4.3 13.5.3L26.4.3 26.4 13.2zM32.9 13.2C32.9 6.1 38.7.3 45.8.3 52.9.3 58.7 6.1 58.7 13.2L58.7 45.5C58.7 52.6 52.9 58.4 45.8 58.4 38.7 58.4 32.9 52.6 32.9 45.5L32.9 13.2z"/>
    </g>
    <g fill="#36C5F0">
      <path d="M45.8 26.4C38.7 26.4 32.9 20.6 32.9 13.5 32.9 6.4 38.7.6 45.8.6 52.9.6 58.7 6.4 58.7 13.5L58.7 26.4 45.8 26.4zM45.8 32.9C52.9 32.9 58.7 38.7 58.7 45.8 58.7 52.9 52.9 58.7 45.8 58.7L13.5 58.7C6.4 58.7.6 52.9.6 45.8.6 38.7 6.4 32.9 13.5 32.9L45.8 32.9z"/>
    </g>
    <g fill="#2EB67D" transform="translate(65)">
      <path d="M32.6 45.8C32.6 38.7 38.4 32.9 45.5 32.9 52.6 32.9 58.4 38.7 58.4 45.8 58.4 52.9 52.6 58.7 45.5 58.7L32.6 58.7 32.6 45.8zM26.1 45.8C26.1 52.9 20.3 58.7 13.2 58.7 6.1 58.7.3 52.9.3 45.8L.3 13.5C.3 6.4 6.1.6 13.2.6 20.3.6 26.1 6.4 26.1 13.5L26.1 45.8z"/>
    </g>
    <g fill="#ECB22E" transform="translate(65 65)">
      <path d="M13.2 32.6C20.3 32.6 26.1 38.4 26.1 45.5 26.1 52.6 20.3 58.4 13.2 58.4 6.1 58.4.3 52.6.3 45.5L.3 32.6 13.2 32.6zM13.2 26.1C6.1 26.1.3 20.3.3 13.2.3 6.1 6.1.3 13.2.3L45.5.3C52.6.3 58.4 6.1 58.4 13.2 58.4 20.3 52.6 26.1 45.5 26.1L13.2 26.1z"/>
    </g>
  </g>
</svg>
