<svg width="60" height="60" viewBox="0 0 60 60" fill="none" xmlns="http://www.w3.org/2000/svg">
<mask id="mask0" mask-type="alpha" maskUnits="userSpaceOnUse" x="0" y="0" width="60" height="60">
<circle cx="30" cy="30" r="30" fill="#C4C4C4"/>
</mask>
<g mask="url(#mask0)">
<path d="M0 30C0 13.4315 13.4315 0 30 0C46.5685 0 60 13.4315 60 30C60 46.5685 46.5685 60 30 60C13.4315 60 0 46.5685 0 30Z" fill="#FF6600"/>
<rect width="60" height="60" fill="#F66201"/>
<circle cx="30" cy="30" r="25.9091" fill="black" fill-opacity="0.09"/>
<circle cx="30" cy="30" r="25.6591" stroke="#CC5101" stroke-opacity="0.2" stroke-width="0.5"/>
<circle cx="30" cy="30" r="16.3636" fill="black" fill-opacity="0.09"/>
<circle cx="30" cy="30" r="16.1136" stroke="#CC5101" stroke-opacity="0.2" stroke-width="0.5"/>
<rect width="60" height="60" fill="#FF6633"/>
<circle cx="30" cy="30" r="25.9091" fill="black" fill-opacity="0.09"/>
<circle cx="30" cy="30" r="25.6591" stroke="#CC5101" stroke-opacity="0.2" stroke-width="0.5"/>
<circle cx="30" cy="30" r="16.3636" fill="black" fill-opacity="0.09"/>
<circle cx="30" cy="30" r="16.1136" stroke="#CC5101" stroke-opacity="0.2" stroke-width="0.5"/>
<path d="M38.7896 38.631C36.4413 40.9019 33.3234 42.1483 30 42.1483C26.6766 42.1483 23.5587 40.9019 21.2104 38.631C18.8709 36.3644 17.5808 33.3594 17.5808 30.1622C17.5808 28.3054 18.0094 26.5254 18.8534 24.8692C19.6755 23.2515 20.8999 21.8044 22.3867 20.6903C23.3349 19.9826 24.195 19.1689 24.9493 18.2658C26.0425 16.9639 26.8996 15.5126 27.4943 13.9546C28.591 11.0814 27.3864 7.52895 27.4943 6.85172C28.5482 7.79934 31.6713 9.66049 32.7025 12.9233C34.163 15.5955 32.8337 20.4513 32.7025 22.4746C32.6711 22.9511 32.7509 23.4284 32.9357 23.8705C33.1205 24.3126 33.4056 24.7081 33.7695 25.0272C34.0849 25.3052 34.4537 25.5194 34.8546 25.6571C35.2554 25.7949 35.6803 25.8535 36.1046 25.8297C36.9661 25.787 37.1077 26.1221 38.3348 24.7881C39.562 23.4542 38.3348 20.6903 38.3348 19.2451C38.947 20.0092 41.2096 23.068 41.6993 25.0272C42.1891 26.9863 42.4192 28.4889 42.4192 30.1622C42.4192 33.3594 41.1291 36.3687 38.7896 38.631Z" fill="white"/>
<path d="M21.0967 38.7484L21.0968 38.7485C23.4762 41.0494 26.6351 42.3117 30 42.3117C33.3649 42.3117 36.5238 41.0494 38.9032 38.7485C41.2739 36.456 42.5826 33.4045 42.5826 30.1622C42.5826 28.4716 42.3497 26.9551 41.8579 24.9875C41.606 23.9801 40.9048 22.7063 40.2009 21.6002C39.494 20.4896 38.7718 19.5291 38.4624 19.143L38.1714 18.7799V19.2451C38.1714 19.6247 38.2515 20.0834 38.3471 20.5651C38.3693 20.6772 38.3925 20.7907 38.4158 20.9053C38.4941 21.2896 38.5749 21.6864 38.6334 22.0822C38.7869 23.1215 38.7714 24.0722 38.2146 24.6775C37.6011 25.3443 37.2854 25.5622 37.036 25.6365C36.9131 25.6731 36.7972 25.6776 36.6488 25.6732C36.6161 25.6722 36.5815 25.6707 36.545 25.6692C36.419 25.664 36.2702 25.6578 36.0965 25.6664L36.0954 25.6665C35.6922 25.6892 35.2885 25.6335 34.9077 25.5026C34.5269 25.3717 34.1767 25.1684 33.8776 24.9046L33.8772 24.9043C33.5318 24.6014 33.2616 24.2264 33.0864 23.8075C32.9113 23.3886 32.8359 22.9365 32.8655 22.4853L32.8655 22.4852C32.8961 22.0133 32.9935 21.3815 33.1067 20.6464C33.1127 20.6077 33.1187 20.5686 33.1247 20.5292C33.245 19.7479 33.3785 18.8632 33.4621 17.9573C33.6279 16.1605 33.602 14.2409 32.8535 12.859C32.3248 11.1983 31.2682 9.89945 30.2196 8.90097C29.6933 8.39986 29.1672 7.97269 28.7086 7.6128C28.5896 7.51944 28.4758 7.43108 28.368 7.34737C28.0566 7.10555 27.7953 6.90257 27.6036 6.73021L27.3802 6.52936L27.3329 6.82601C27.3154 6.93589 27.3257 7.0863 27.3461 7.25333C27.3671 7.42531 27.4017 7.63455 27.4419 7.87066C27.4493 7.91411 27.4569 7.95855 27.4647 8.00395C27.5418 8.45425 27.6349 8.99807 27.7027 9.59804C27.8523 10.9214 27.876 12.4965 27.3416 13.8963C26.7536 15.4369 25.9059 16.8725 24.8241 18.1607L24.8238 18.161C24.0778 19.0543 23.227 19.8592 22.289 20.5594L22.2887 20.5596C20.7825 21.6882 19.5415 23.1544 18.7078 24.795C17.8521 26.4741 17.4174 28.2795 17.4174 30.1622C17.4174 33.4046 18.7261 36.4517 21.0967 38.7484Z" stroke="#CC5101" stroke-opacity="0.2" stroke-width="0.32682"/>
</g>
</svg>
